<svg xmlns="http://www.w3.org/2000/svg" data-name="Layer 1" width="197" height="63"><rect id="backgroundrect" width="100%" height="100%" x="0" y="0" fill="none" stroke="none"/><defs><style>.cls-1{fill:#eab932;}</style></defs><title>Wedding-assets</title><g class="currentLayer" style=""><title>Layer 1</title><path class="cls-1" d="M19.01999336242676,8.12169464111328 c1,0.44000000000000006 0.7300000000000001,1.27 0.49000000000000005,2 s-1,0.7400000000000001 -1.57,0.6100000000000001 a18.19,18.19 0 0 1 -4.5600000000000005,-1.5 q-5.73,-2.9 -11.48,-5.74 a2,2 0 0 1 -1.06,-0.8300000000000001 c-0.31000000000000005,-0.6600000000000001 -1.08,-1.24 -0.6500000000000001,-2.08 s1.22,-0.52 1.86,-0.53 c4.74,0 9.48,0 14.22,0 a13.29,13.29 0 0 1 3.6100000000000003,0.6400000000000001 c1.23,0.35000000000000003 2.25,0.8800000000000001 2.51,2.34 s-0.6200000000000001,2.06 -1.86,2.59 c0.49000000000000005,0.8 1.24,0.77 1.83,0.92 c18.25,4.890000000000001 106.58,29 124.83,33.88 c8.58,2.3 17.13,4.67 25.69,7 c1.15,0.32000000000000006 2.23,0.8400000000000001 3.12,-0.6400000000000001 c0.33000000000000007,-0.55 1.3,-0.7500000000000001 2,-1.06 a54.2,54.2 0 0 1 8.08,-3.2 c-2.37,2.56 -5.49,4 -8.77,6 c1.62,0.51 2.72,1.2 4,0 a5.17,5.17 0 0 1 2.11,-0.8300000000000001 a64.2,64.2 0 0 1 9.16,-2.2800000000000002 c-1,1.28 -1.09,1.31 -4.36,2.5 l-5.27,1.9300000000000002 c1.7400000000000002,1 3,1.46 4.7,0.6000000000000001 a22.18,22.18 0 0 1 9.22,-2.58 a4.23,4.23 0 0 1 -1.9500000000000002,1.33 c-1.85,0.92 -3.6900000000000004,1.87 -5.59,2.68 c-1.15,0.49000000000000005 -1.18,1.1 -0.7500000000000001,2.13 a42.48,42.48 0 0 1 2.2,6.28 a4.76,4.76 0 0 1 0.27,2.36 a7.18,7.18 0 0 1 -2,-2.79 a41.6,41.6 0 0 1 -2.7600000000000002,-6.05 c-0.7200000000000001,-1.8900000000000001 -0.6900000000000002,-1.9 -3.1,-2.33 c0.8500000000000001,3.11 2.44,5.85 3,9.13 a3.24,3.24 0 0 1 -1.61,-1.82 a46.05,46.05 0 0 1 -2.79,-5.79 c-0.78,-2.25 -2.3200000000000003,-3 -4.83,-3.11 l3.93,9.65 c-0.79,0.22000000000000003 -1,-0.35000000000000003 -1.24,-0.7300000000000001 a58.85,58.85 0 0 1 -4.38,-8.32 a3,3 0 0 0 -2.31,-1.87 c-3.71,-0.8500000000000001 -7.45,-1.6500000000000001 -11.09,-2.77 c-7.38,-2.26 -14.870000000000001,-4.12 -22.31,-6.16 c-15.64,-4.28 -101.35,-27.78 -117,-32.06 a12.39,12.39 0 0 1 -1.77,-0.5 c-1.18,-0.52 -1.6,0 -1.7600000000000002,1.1 c-3.25,-2.68 -7.18,-3.5700000000000003 -11.620000000000001,-4.45 a13.21,13.21 0 0 0 3.54,2.33 A28.92,28.92 0 0 0 17.459993362426758,8.821694641113282 C18.15999336242676,9.001694641113275 18.889993362426758,9.181694641113282 19.01999336242676,8.12169464111328 zm-11,-5.890000000000001 c4.44,1.7000000000000002 8.74,3 13.47,1 C19.259993362426755,1.5516946411132864 12.999993362426757,1.1016946411132835 8.01999336242676,2.231694641113279 z" id="svg_1"/><path class="cls-1" d="M179.45999336242676,8.821694641113282 a28.92,28.92 0 0 0 6.52,-2.75 A13.21,13.21 0 0 0 189.45999336242676,3.731694641113279 c-4.44,0.8800000000000001 -8.37,1.7600000000000002 -11.620000000000001,4.45 c-0.16000000000000003,-1 -0.5800000000000001,-1.62 -1.7600000000000002,-1.1 a12.39,12.39 0 0 1 -1.77,0.5 c-15.64,4.27 -101.35,27.78 -117,32.06 c-7.44,2 -14.93,3.89 -22.31,6.16 c-3.64,1.12 -7.37,1.92 -11.09,2.77 a3,3 0 0 0 -2.31,1.87 a58.85,58.85 0 0 1 -4.38,8.32 c-0.26,0.39000000000000007 -0.45,1 -1.24,0.7300000000000001 l3.93,-9.65 c-2.51,0.12000000000000001 -4.05,0.8600000000000001 -4.83,3.11 a46.05,46.05 0 0 1 -2.79,5.79 a3.24,3.24 0 0 1 -1.61,1.82 c0.5800000000000001,-3.2800000000000002 2.16,-6 3,-9.13 c-2.41,0.43000000000000005 -2.38,0.44000000000000006 -3.1,2.33 a41.6,41.6 0 0 1 -2.7600000000000002,6.05 a7.18,7.18 0 0 1 -2,2.79 a4.76,4.76 0 0 1 0.27,-2.36 a42.48,42.48 0 0 1 2.2,-6.28 c0.44000000000000006,-1 0.41000000000000003,-1.6300000000000001 -0.7500000000000001,-2.13 c-1.9,-0.81 -3.74,-1.7600000000000002 -5.59,-2.68 a4.23,4.23 0 0 1 -1.9500000000000002,-1.33 a22.18,22.18 0 0 1 9.22,2.58 c1.6800000000000002,0.8600000000000001 3,0.36000000000000004 4.7,-0.6000000000000001 l-5.27,-1.9300000000000002 c-3.26,-1.19 -3.3200000000000003,-1.21 -4.36,-2.5 A64.2,64.2 0 0 1 13.459993362426758,47.67169464111328 a5.17,5.17 0 0 1 2.11,0.8300000000000001 c1.28,1.25 2.39,0.56 4,0 c-3.27,-2 -6.4,-3.48 -8.77,-6 a54.2,54.2 0 0 1 8.08,3.2 c0.7000000000000001,0.31000000000000005 1.6600000000000001,0.51 2,1.06 c0.8900000000000001,1.48 2,1 3.12,0.6400000000000001 c8.56,-2.35 17.12,-4.72 25.69,-7 c18.25,-4.9 106.58,-29 124.83,-33.88 c0.5900000000000001,-0.16000000000000003 1.34,-0.13 1.83,-0.92 c-1.24,-0.52 -2.11,-1.1600000000000001 -1.86,-2.59 s1.28,-2 2.51,-2.34 a13.29,13.29 0 0 1 3.6100000000000003,-0.6400000000000001 c4.74,0 9.48,0 14.22,0 c0.6400000000000001,0 1.47,-0.22000000000000003 1.86,0.53 s-0.33000000000000007,1.42 -0.6500000000000001,2.08 a2,2 0 0 1 -1.06,0.8300000000000001 q-5.75,2.85 -11.48,5.74 a18.19,18.19 0 0 1 -4.5600000000000005,1.5 c-0.6100000000000001,0.13 -1.32,0.08000000000000002 -1.57,-0.6100000000000001 s-0.52,-1.52 0.49000000000000005,-2 C178.02999336242675,9.181694641113282 178.75999336242677,9.001694641113275 179.45999336242676,8.821694641113282 zM175.45999336242676,3.2916946411132812 c4.73,2 9,0.6500000000000001 13.47,-1 C183.91999336242677,1.1016946411132835 177.65999336242675,1.5516946411132864 175.45999336242676,3.2916946411132812 z" id="svg_2"/></g></svg>