<svg height="63" width="197" xmlns="http://www.w3.org/2000/svg"><rect fill="none" height="100%" width="100%"/><g fill="#eab932"><path d="m19.01999336 8.12169464c1 .44.73 1.27.49 2s-1 .74-1.57.61a18.19 18.19 0 0 1 -4.56-1.5q-5.73-2.9-11.48-5.74a2 2 0 0 1 -1.06-.83c-.31-.66-1.08-1.24-.65-2.08s1.22-.52 1.86-.53h14.22a13.29 13.29 0 0 1 3.61.64c1.23.35 2.25.88 2.51 2.34s-.62 2.06-1.86 2.59c.49.8 1.24.77 1.83.92 18.25 4.89 106.58 29 124.83 33.88 8.58 2.3 17.13 4.67 25.69 7 1.15.32 2.23.84 3.12-.64.33-.55 1.3-.75 2-1.06a54.2 54.2 0 0 1 8.08-3.2c-2.37 2.56-5.49 4-8.77 6 1.62.51 2.72 1.2 4 0a5.17 5.17 0 0 1 2.11-.83 64.2 64.2 0 0 1 9.16-2.28c-1 1.28-1.09 1.31-4.36 2.5l-5.27 1.93c1.74 1 3 1.46 4.7.6a22.18 22.18 0 0 1 9.22-2.58 4.23 4.23 0 0 1 -1.95 1.33c-1.85.92-3.69 1.87-5.59 2.68-1.15.49-1.18 1.1-.75 2.13a42.48 42.48 0 0 1 2.2 6.28 4.76 4.76 0 0 1 .27 2.36 7.18 7.18 0 0 1 -2-2.79 41.6 41.6 0 0 1 -2.76-6.05c-.72-1.89-.69-1.9-3.1-2.33.85 3.11 2.44 5.85 3 9.13a3.24 3.24 0 0 1 -1.61-1.82 46.05 46.05 0 0 1 -2.79-5.79c-.78-2.25-2.32-3-4.83-3.11l3.93 9.65c-.79.22-1-.35-1.24-.73a58.85 58.85 0 0 1 -4.38-8.32 3 3 0 0 0 -2.31-1.87c-3.71-.85-7.45-1.65-11.09-2.77-7.38-2.26-14.87-4.12-22.31-6.16-15.64-4.28-101.35-27.78-117-32.06a12.39 12.39 0 0 1 -1.77-.5c-1.18-.52-1.6 0-1.76 1.1-3.25-2.68-7.18-3.57-11.62-4.45a13.21 13.21 0 0 0 3.54 2.33 28.92 28.92 0 0 0 6.51 2.72c.7.18 1.43.36 1.56-.7zm-11-5.89c4.44 1.7 8.74 3 13.47 1-2.23-1.68-8.49-2.13-13.47-1z"/><path d="m179.45999336 8.82169464a28.92 28.92 0 0 0 6.52-2.75 13.21 13.21 0 0 0 3.48-2.34c-4.44.88-8.37 1.76-11.62 4.45-.16-1-.58-1.62-1.76-1.1a12.39 12.39 0 0 1 -1.77.5c-15.64 4.27-101.35 27.78-117 32.06-7.44 2-14.93 3.89-22.31 6.16-3.64 1.12-7.37 1.92-11.09 2.77a3 3 0 0 0 -2.31 1.87 58.85 58.85 0 0 1 -4.38 8.32c-.26.39-.45 1-1.24.73l3.93-9.65c-2.51.12-4.05.86-4.83 3.11a46.05 46.05 0 0 1 -2.79 5.79 3.24 3.24 0 0 1 -1.61 1.82c.58-3.28 2.16-6 3-9.13-2.41.43-2.38.44-3.1 2.33a41.6 41.6 0 0 1 -2.76 6.05 7.18 7.18 0 0 1 -2 2.79 4.76 4.76 0 0 1 .27-2.36 42.48 42.48 0 0 1 2.2-6.28c.44-1 .41-1.63-.75-2.13-1.9-.81-3.74-1.76-5.59-2.68a4.23 4.23 0 0 1 -1.95-1.33 22.18 22.18 0 0 1 9.22 2.58c1.68.86 3 .36 4.7-.6l-5.27-1.93c-3.26-1.19-3.32-1.21-4.36-2.5a64.2 64.2 0 0 1 9.17 2.3 5.17 5.17 0 0 1 2.11.83c1.28 1.25 2.39.56 4 0-3.27-2-6.4-3.48-8.77-6a54.2 54.2 0 0 1 8.08 3.2c.7.31 1.66.51 2 1.06.89 1.48 2 1 3.12.64 8.56-2.35 17.12-4.72 25.69-7 18.25-4.9 106.58-29 124.83-33.88.59-.16 1.34-.13 1.83-.92-1.24-.52-2.11-1.16-1.86-2.59s1.28-2 2.51-2.34a13.29 13.29 0 0 1 3.61-.64h14.22c.64 0 1.47-.22 1.86.53s-.33 1.42-.65 2.08a2 2 0 0 1 -1.06.83q-5.75 2.85-11.48 5.74a18.19 18.19 0 0 1 -4.56 1.5c-.61.13-1.32.08-1.57-.61s-.52-1.52.49-2c.17 1.08.9.9 1.6.72zm-4-5.53c4.73 2 9 .65 13.47-1-5.01-1.19-11.27-.74-13.47 1z"/></g></svg>