<svg height="179" width="54" xmlns="http://www.w3.org/2000/svg"><rect fill="none" height="100%" width="100%"/><g fill="#eab932"><path d="m47.06067017 11.39331039c-1.35 3.7-15.92 4-18.59 4a59.63 59.63 0 0 1 -7-.25 34.14 34.14 0 0 1 -5-.75q-5.79-.06-4.36-8c2.1-2 12.28.35 14.8.64 5.94.68 15.84.4 18.91 6.68 1.76 3.6 7.25.69 5.5-2.9-5-10.26-20.72-9.83-30.42-10.63-6.88-.57-18.81-.4-18.38 9.53.44 10.16 14.1 11.44 21.56 11.8 8.07.4 25.51.91 28.9-8.34 1.38-3.76-4.56-5.59-5.94-1.84z"/><path d="m3.21067017 9.86331039a108.74 108.74 0 0 0 14.69 86c2.17 3.33 7.69.45 5.5-2.9-15.93-24.4-21.07-52.9-14.25-81.27.93-3.87-5-5.73-5.94-1.84z"/><path d="m46.71067017 14.31331039c0 26.45 2.09 61-21.57 78.25-3.24 2.35 1 6.91 4.2 4.58 25.33-18.43 23.53-54.38 23.59-82.64 0-4-6.21-4.21-6.21-.19z"/><path d="m21.62067017 94.63331039 4 72.32c.22 4 6.43 4.2 6.21.19l-4-72.32c-.22-4-6.43-4.2-6.21-.19z"/><path d="m9.68067017 159.75331039a115.44 115.44 0 0 1 34.83-1.56c3.32.36 7.17 1.24 8.55 4.28 1.7 3.75-1.58 7.87-5 10.2a37.51 37.51 0 0 1 -36.66 2.88c-3.4-1.62-6.82-4.17-7.5-7.87s3.24-8 6.61-6.28"/></g></svg>