<svg xmlns="http://www.w3.org/2000/svg" data-name="Layer 1" width="54" height="179"><rect id="backgroundrect" width="100%" height="100%" x="0" y="0" fill="none" stroke="none"/><defs><style>.cls-1{fill:#eab932;}</style></defs><title>Wedding-assets</title><g class="currentLayer" style=""><title>Layer 1</title><path class="cls-1" d="M47.060670166015626,11.393310394287113 c-1.35,3.7 -15.92,4 -18.59,4 a59.63,59.63 0 0 1 -7,-0.25 a34.14,34.14 0 0 1 -5,-0.7500000000000001 q-5.79,-0.06000000000000001 -4.36,-8 c2.1,-2 12.28,0.35000000000000003 14.8,0.6400000000000001 c5.94,0.6800000000000002 15.84,0.4 18.91,6.68 c1.7600000000000002,3.6 7.25,0.6900000000000002 5.5,-2.9 c-5,-10.26 -20.72,-9.83 -30.42,-10.63 c-6.88,-0.5700000000000001 -18.81,-0.4 -18.38,9.53 c0.44000000000000006,10.16 14.1,11.44 21.56,11.8 c8.07,0.4 25.51,0.91 28.9,-8.34 c1.3800000000000001,-3.7600000000000002 -4.5600000000000005,-5.59 -5.94,-1.84 z" id="svg_1"/><path class="cls-1" d="M3.210670166015632,9.863310394287112 a108.74,108.74 0 0 0 14.69,86 c2.17,3.33 7.69,0.45 5.5,-2.9 c-15.93,-24.4 -21.07,-52.9 -14.25,-81.27 c0.93,-3.87 -5,-5.73 -5.94,-1.84 z" id="svg_2"/><path class="cls-1" d="M46.71067016601563,14.313310394287107 c0,26.45 2.09,61 -21.57,78.25 c-3.24,2.35 1,6.91 4.2,4.58 c25.33,-18.43 23.53,-54.38 23.59,-82.64 c0,-4 -6.21,-4.21 -6.21,-0.19000000000000003 z" id="svg_3"/><path class="cls-1" d="M21.62067016601563,94.63331039428712 l4,72.32 c0.22000000000000003,4 6.43,4.2 6.21,0.19000000000000003 l-4,-72.32 c-0.22000000000000003,-4 -6.43,-4.2 -6.21,-0.19000000000000003 z" id="svg_4"/><path class="cls-1" d="M9.68067016601563,159.7533103942871 a115.44,115.44 0 0 1 34.83,-1.56 c3.3200000000000003,0.36000000000000004 7.17,1.24 8.55,4.28 c1.7000000000000002,3.75 -1.58,7.87 -5,10.2 A37.51,37.51 0 0 1 11.40067016601563,175.5533103942871 c-3.4,-1.62 -6.82,-4.17 -7.5,-7.87 s3.24,-8 6.61,-6.28 " id="svg_5"/></g></svg>