<svg height="113" width="105" xmlns="http://www.w3.org/2000/svg"><rect fill="none" height="100%" width="100%"/><path d="m55.58928314 32.43490082c2.73-3.91 5.25-8.06 8.31-11.77 5.84-7.1 12.6-13.13 21.82-15.45 11.71-3 19.29 2.81 19.63 14.74a47.8 47.8 0 0 1 -3.46 18.42c-8.87 23.31-21.6 44.51-35.91 64.8a20.93 20.93 0 0 1 -9.52 7.89c-7.49 2.92-10.47 2.31-15.07-4.35a372 372 0 0 1 -37.11-69 59.85 59.85 0 0 1 -3.81-14.07c-1.62-10.88.91-17.53 8.28-20.58 10.12-4.19 19.83-5.08 26.74 3.78q8 10.3 16 20.69c1.19 1.66 1.72 3.84 4.1 4.9z" fill="#eab932"/></svg>