<svg xmlns="http://www.w3.org/2000/svg" data-name="Layer 1" width="105" height="113"><rect id="backgroundrect" width="100%" height="100%" x="0" y="0" fill="none" stroke="none"/><defs><style>.cls-1{fill:#eab932;}</style></defs><title>Wedding-assets</title><g class="currentLayer" style=""><title>Layer 1</title><path class="cls-1" d="M55.58928314208984,32.434900817871096 c2.73,-3.91 5.25,-8.06 8.31,-11.77 c5.84,-7.1 12.6,-13.13 21.82,-15.45 c11.71,-3 19.29,2.81 19.63,14.74 A47.8,47.8 0 0 1 101.88928314208985,38.374900817871094 c-8.870000000000001,23.31 -21.6,44.51 -35.91,64.8 a20.93,20.93 0 0 1 -9.52,7.890000000000001 c-7.49,2.92 -10.47,2.31 -15.07,-4.35 a372,372 0 0 1 -37.11,-69 a59.85,59.85 0 0 1 -3.81,-14.07 c-1.62,-10.88 0.91,-17.53 8.28,-20.58 c10.12,-4.19 19.83,-5.08 26.74,3.7800000000000002 q8,10.3 16,20.69 C52.679283142089844,29.194900817871087 53.209283142089845,31.374900817871094 55.58928314208984,32.434900817871096 z" id="svg_1"/></g></svg>