<svg xmlns="http://www.w3.org/2000/svg" data-name="Layer 1" width="65" height="160"><rect id="backgroundrect" width="100%" height="100%" x="0" y="0" fill="none" stroke="none"/><defs><style>.cls-1,.cls-2{fill:#eab932;}.cls-2{fill-rule:evenodd;}</style></defs><title>Wedding-assets</title><g class="currentLayer" style=""><title>Layer 1</title><path class="cls-1" d="M28.18675903320313,104.90555923461915 c2.19,-2.19 4.78,-4.57 7.11,-6.62 a62.35,62.35 0 0 1 -7.6,-17.47 l-18,-71.17 a7.51,7.51 0 0 1 5.44,-9.12 c11.23,-2.84 17.5,6.38 23,14.45 c1.62,2.38 -1.28,5.62 0.8900000000000001,5.07 a6.5,6.5 0 0 1 5,0.4 l0.14,0.06000000000000001 h0 c0.06000000000000001,0 0.30000000000000004,0.06000000000000001 3.35,-0.7100000000000001 l7.12,-1.8 a7.51,7.51 0 0 1 8,3 l0.8700000000000001,1 a7.48,7.48 0 0 1 -9,11.58 l-3.29,0.8300000000000001 c-5.52,1.4 -8.88,1.11 -10.88,0.6200000000000001 c-4.16,0.2 -7.23,-2.07 -10,-5.38 l12,47.54 c1.7600000000000002,6.94 5.19,12.34 7.69,16.28 c1.9500000000000002,3.07 3.49,5.5 4.17,8.17 a31.51,31.51 0 0 0 4,9.61 a20.14,20.14 0 0 1 2.6900000000000004,5.74 c4.47,17.66 4.24,17.92 -4.34,27.43 c-1.12,1.24 -2.46,2.73 -4,4.51 l-0.09000000000000002,0.11000000000000001 c-3.59,4.27 -11.85,8.1 -20,9.88 c-8.5,1.86 -17.62,1.6 -22.74,-2.39 l-0.33000000000000007,-0.26 c-12.55,-10.55 -9.47,-19.16 -7.78,-23.47 a7.52,7.52 0 0 1 5.59,-6.22 l11.13,-10.78 c1.6400000000000001,-1.59 3.09,-3 4.39,-4.09 a34.23,34.23 0 0 1 5.06,-6.35 zm13.75,7.53 c-1.06,1 -2.14,2 -3.15,3 a7.43,7.43 0 0 1 -2.9,1.8 a7.53,7.53 0 0 1 -5.640000000000001,6.6 c-1.6300000000000001,0.41000000000000003 0.29000000000000004,0.8900000000000001 -1.47,2.59 a164,164 0 0 1 -13.25,12 c-0.31000000000000005,1.06 -0.3400000000000001,2.91 3.15,6 a6.38,6.38 0 0 1 0.5900000000000001,0.47000000000000003 c1.36,0.77 5.54,0.3400000000000001 10,-0.6500000000000001 c5,-1.11 9.74,-2.92 11.48,-4.640000000000001 a7.92,7.92 0 0 1 0.6600000000000001,-0.7500000000000001 c1.56,-1.84 2.8600000000000003,-3.2800000000000002 4,-4.51 c3.3200000000000003,-3.68 3.41,-3.79 0.8900000000000001,-13.73 a12.12,12.12 0 0 0 -0.9400000000000001,-1.7000000000000002 A48.43,48.43 0 0 1 41.93675903320312,112.43555923461915 z" id="svg_1"/><path class="cls-2" d="M28.41675903320312,116.59555923461915 c-0.7500000000000001,0.19000000000000003 -16.47,16.47 -19.32,17.19 c0.37000000000000005,1.45 -5.7,7.5600000000000005 5.16,16.68 c6.18,5.19 27.38,-0.24000000000000002 32.48,-6.32 c10,-11.870000000000001 11,-8.86 6.83,-25.39 c-0.8400000000000001,-3.31 -4.29,-5.74 -6.72,-15.34 a14.43,14.43 0 0 0 -1.7000000000000002,-3.55 c-2.87,1.84 -17.22,14.83 -16.73,16.73 " id="svg_2"/></g></svg>