<svg height="166" width="181" xmlns="http://www.w3.org/2000/svg"><rect fill="none" height="100%" width="100%"/><g fill="#eab932"><path d="m72.3370108 89.39366714a3.53 3.53 0 0 1 -4 2.9m-16.45-4.9c-1.36 0-2.81.11-4.29.2-3.06.2-6.41.26-9.82.31a131.35 131.35 0 0 0 -15.32.83c-9.57 1.31-16.92 5.23-15.25 17.71v.09.3.28.1l.07.32.06.2a14.25 14.25 0 0 0 3.73 6 36 36 0 0 0 8.58 6.27 44.83 44.83 0 0 0 9.82 4 20.24 20.24 0 0 0 7.2.83l.34-.07 3-.42h.06l2.42-.3h.15c6-.7 10.49-4.42 13.88-9.49 5-7.45 7.62-17.77 8.95-26.21v-.06c.32-2.11.72-4.64 1.46-7.61v-.07a44.43 44.43 0 0 1 3.36-9.15l.07-.17 27-53.81a3.52 3.52 0 0 1 6.72 1.67c-.13 1.88 19.78 7.8 35.65 15.6 8.86 4.36 16.69 8.21 19.26 9.52l2.92 1.49a3.48 3.48 0 0 1 1.66 1.8l.08.2.13.27a3.5 3.5 0 0 1 0 3.14l-26.51 51.89a47.25 47.25 0 0 0 -3.3 8.28v.14a65.27 65.27 0 0 0 -1.65 7.28 3.52 3.52 0 0 1 -3.51 3.09c-1.65 0-3.23 0-4.61.05s-2.78.11-4.36.22l-1.83.11c-7.18.44-30.71 1.88-31 2.1a3.52 3.52 0 0 1 -.69.47 13 13 0 0 0 -5.15 4.16c-1.55 2.34-2.55 6-1.74 12v.09.3.28.1l.07.32.06.2a14.26 14.26 0 0 0 3.73 6 35.87 35.87 0 0 0 8.46 6.29 45 45 0 0 0 9.83 4 19.85 19.85 0 0 0 7.28.82h.05.08.11l2.89-.41h.16l2.21-.27.33-.05c5-.59 7.66-.9 9.27-2.24 1.89-1.55 3.69-4.93 7.12-11.63l.13-.28a14.75 14.75 0 0 0 1.21-4.24l.08-.44a32.21 32.21 0 0 1 3.22-9.62l.13-.28c.86-1.68 1.22-4 1.68-6.92v-.09c.69-4.4 1.64-10.47 4.83-16.81l.07-.16c4.78-9.51 8-16.86 10.86-23.3 5.5-12.47 9.58-21.72 19.72-35.77a18.13 18.13 0 0 1 -2.7-2.64c-.62-.73-.93-1.1-8.38-4.91l-.28-.13-62-31.8a3 3 0 0 0 -2.27-.19 2.93 2.93 0 0 0 -1.7 1.46l-30.59 59.93a48.22 48.22 0 0 0 -3.34 8.41 65.67 65.67 0 0 0 -1.67 7.45 3.51 3.51 0 0 1 -3.47 2.91c-1.41-.01-3.02.02-4.72.06zm-4.73-6.81c1.33-.09 2.89-.16 4.54-.2h2c.35-1.67.77-3.46 1.32-5.34a55.63 55.63 0 0 1 3.81-9.63l30.62-59.93a10 10 0 0 1 5.82-5 10 10 0 0 1 7.6.6l62 31.67.26.15c8.77 4.49 9.37 5.2 10.59 6.64a20.19 20.19 0 0 0 4.25 3.59 3.52 3.52 0 0 1 .8 4.91l-.18.23-.23.3c-10.93 14.76-15 24-20.62 36.73-2.91 6.59-6.23 14.11-11 23.61l-.13.24c-2.63 5.27-3.5 10.72-4.12 14.69v.08c-.55 3.53-1 6.35-2.35 9l-.14.25a26.23 26.23 0 0 0 -2.6 7.93v.16a20.27 20.27 0 0 1 -1.85 6.2l-.15.26c-3.89 7.59-6 11.46-8.9 13.87-3.26 2.68-6.54 3.07-12.91 3.82h-.27l-2.26.27-2.75.39h-.09-.21a26.51 26.51 0 0 1 -10.14-1 52.22 52.22 0 0 1 -11.4-4.65 43 43 0 0 1 -10.13-7.61 21.15 21.15 0 0 1 -5.4-8.92 8.73 8.73 0 0 1 -.31-1.25v-.21l-.09-.85c-1.07-8 .5-13.23 2.86-16.79a19.22 19.22 0 0 1 7.75-6.48 3.47 3.47 0 0 1 1.94-.38c7.14-1.44 26-2.57 32.54-3l1.8-.11c1.27-.09 2.89-.16 4.64-.21h1.9c.34-1.67.77-3.45 1.32-5.33a54.74 54.74 0 0 1 3.8-9.61l25.12-49.18-.29-.15c-3.95-2-11.06-5.52-19.15-9.5-12.34-6.07-26.73-13.13-34.3-17.84l-25.82 51.42-.13.25a37 37 0 0 0 -2.78 7.64v.09c-.6 2.42-1 4.89-1.3 7-1.45 9.22-4.37 20.58-10.05 29.07-4.46 6.66-10.58 11.59-18.94 12.57h-.09l-2.36.29-3 .42h-.13a26.42 26.42 0 0 1 -10.19-1 52 52 0 0 1 -11.39-4.64 42.94 42.94 0 0 1 -10.13-7.61 21.14 21.14 0 0 1 -5.4-8.92 8.7 8.7 0 0 1 -.31-1.25v-.21l-.09-.85c-2.43-18.09 7.86-23.73 21.28-25.56a136.45 136.45 0 0 1 16.01-.82c3.28-.05 6.48-.11 9.5-.31z"/><path d="m47.3770108 84.09366714c2.95-.19 6.32-.28 9.23-.27a57.21 57.21 0 0 1 5.35-16.86l30.62-59.93a6.46 6.46 0 0 1 8.69-2.81l62 31.68c13.91 7.1 6 3.86 14.64 10.1l-.37.5c-16.79 22.67-17.7 32.5-31.94 60.85-3 5.9-3.92 11.75-4.58 16-.51 3.26-.9 5.83-2 8a29.25 29.25 0 0 0 -3.07 9.17 18.06 18.06 0 0 1 -1.58 5.46c-7.5 14.68-7.8 14.71-19.24 16.06-1.54.18-3.37.4-5.51.72h-.08c-5 .76-12.87-1.57-19.45-5.21s-12.51-9-13.89-14.5a6.6 6.6 0 0 1 -.28-1.59c-1.94-14.12 5.13-18 8.74-19.84 1.3-1.13 31.43-2.85 34.89-3.07 2.95-.19 6.32-.27 9.23-.27a57.19 57.19 0 0 1 5.34-16.86l26.51-51.89a6.29 6.29 0 0 1 -.3-.67l-2.91-1.49c-9.73-5-56.88-27.77-56.82-28.51l-27.09 53.95c-3 5.9-3.92 11.75-4.58 16-2.39 15.34-9 36.73-25.91 38.72-1.54.18-3.37.4-5.51.72h-.08c-5 .76-12.87-1.57-19.46-5.21s-12.51-9-13.89-14.5a6.6 6.6 0 0 1 -.28-1.59c-3.6-26.18 24.54-21.66 43.63-22.9"/><path d="m155.85701752 65.39366531-66.93000794-32.65999603 3.51000214-7.23000336 66.9200058 32.66999817z"/></g></svg>