<svg height="160" width="65" xmlns="http://www.w3.org/2000/svg"><rect fill="none" height="100%" width="100%"/><g fill="#eab932"><path d="m28.18675903 104.90555923c2.19-2.19 4.78-4.57 7.11-6.62a62.35 62.35 0 0 1 -7.6-17.47l-18-71.17a7.51 7.51 0 0 1 5.44-9.12c11.23-2.84 17.5 6.38 23 14.45 1.62 2.38-1.28 5.62.89 5.07a6.5 6.5 0 0 1 5 .4l.14.06c.06 0 .3.06 3.35-.71l7.12-1.8a7.51 7.51 0 0 1 8 3l.87 1a7.48 7.48 0 0 1 -9 11.58l-3.29.83c-5.52 1.4-8.88 1.11-10.88.62-4.16.2-7.23-2.07-10-5.38l12 47.54c1.76 6.94 5.19 12.34 7.69 16.28 1.95 3.07 3.49 5.5 4.17 8.17a31.51 31.51 0 0 0 4 9.61 20.14 20.14 0 0 1 2.69 5.74c4.47 17.66 4.24 17.92-4.34 27.43-1.12 1.24-2.46 2.73-4 4.51l-.09.11c-3.59 4.27-11.85 8.1-20 9.88-8.5 1.86-17.62 1.6-22.74-2.39l-.33-.26c-12.55-10.55-9.47-19.16-7.78-23.47a7.52 7.52 0 0 1 5.59-6.22l11.13-10.78c1.64-1.59 3.09-3 4.39-4.09a34.23 34.23 0 0 1 5.06-6.35zm13.75 7.53c-1.06 1-2.14 2-3.15 3a7.43 7.43 0 0 1 -2.9 1.8 7.53 7.53 0 0 1 -5.64 6.6c-1.63.41.29.89-1.47 2.59a164 164 0 0 1 -13.25 12c-.31 1.06-.34 2.91 3.15 6a6.38 6.38 0 0 1 .59.47c1.36.77 5.54.34 10-.65 5-1.11 9.74-2.92 11.48-4.64a7.92 7.92 0 0 1 .66-.75c1.56-1.84 2.86-3.28 4-4.51 3.32-3.68 3.41-3.79.89-13.73a12.12 12.12 0 0 0 -.94-1.7 48.43 48.43 0 0 1 -3.42-6.48z"/><path d="m28.41675903 116.59555923c-.75.19-16.47 16.47-19.32 17.19.37 1.45-5.7 7.56 5.16 16.68 6.18 5.19 27.38-.24 32.48-6.32 10-11.87 11-8.86 6.83-25.39-.84-3.31-4.29-5.74-6.72-15.34a14.43 14.43 0 0 0 -1.7-3.55c-2.87 1.84-17.22 14.83-16.73 16.73" fill-rule="evenodd"/></g></svg>