<svg xmlns="http://www.w3.org/2000/svg" data-name="Layer 1" width="181" height="166"><rect id="backgroundrect" width="100%" height="100%" x="0" y="0" fill="none" stroke="none"/><defs><style>.cls-1{fill:#eab932;}</style></defs><title>Wedding-assets</title><g class="currentLayer" style=""><title>Layer 1</title><path class="cls-1" d="M0.6470108032226562,109.6536671447754 h0 m71.69,-20.26 v0 m0,0 a3.5300000000000002,3.5300000000000002 0 0 1 -4,2.9 m4.45,51.83 h0 M51.88701080322265,87.39366714477538 c-1.36,0 -2.81,0.11000000000000001 -4.29,0.2 c-3.06,0.2 -6.41,0.26 -9.82,0.31000000000000005 a131.35,131.35 0 0 0 -15.32,0.8300000000000001 c-9.57,1.31 -16.92,5.23 -15.25,17.71 v0.09000000000000002 l0,0.30000000000000004 l0,0.28 l0,0.1 l0.07,0.32000000000000006 h0 l0.06000000000000001,0.2 a14.25,14.25 0 0 0 3.73,6 h0 A36,36 0 0 0 19.647010803222656,120.00366714477539 h0 a44.83,44.83 0 0 0 9.82,4 a20.24,20.24 0 0 0 7.2,0.8300000000000001 l0.3400000000000001,-0.07 l3,-0.42000000000000004 h0.06000000000000001 l2.42,-0.30000000000000004 l0.15000000000000002,0 c6,-0.7000000000000001 10.49,-4.42 13.88,-9.49 c5,-7.45 7.62,-17.77 8.95,-26.21 v-0.06000000000000001 c0.32000000000000006,-2.11 0.7200000000000001,-4.640000000000001 1.46,-7.61 l0,-0.07 h0 a44.43,44.43 0 0 1 3.36,-9.15 l0.07,-0.17 l27,-53.81 a3.52,3.52 0 0 1 6.72,1.6700000000000002 c-0.13,1.8800000000000001 19.78,7.8 35.65,15.6 c8.86,4.36 16.69,8.21 19.26,9.52 l2.92,1.49 h0 a3.48,3.48 0 0 1 1.6600000000000001,1.8 l0.08000000000000002,0.2 l0.13,0.27 a3.5,3.5 0 0 1 0,3.14 l-26.51,51.89 a47.25,47.25 0 0 0 -3.3,8.28 l0,0.14 a65.27,65.27 0 0 0 -1.6500000000000001,7.28 a3.52,3.52 0 0 1 -3.51,3.09 c-1.6500000000000001,0 -3.23,0 -4.61,0.05000000000000001 s-2.7800000000000002,0.11000000000000001 -4.36,0.22000000000000003 h0 l-1.83,0.11000000000000001 c-7.18,0.44000000000000006 -30.71,1.8800000000000001 -31,2.1 h0 a3.52,3.52 0 0 1 -0.6900000000000002,0.47000000000000003 a13,13 0 0 0 -5.15,4.16 h0 c-1.55,2.34 -2.55,6 -1.7400000000000002,12 v0.09000000000000002 l0,0.30000000000000004 l0,0.28 l0,0.1 l0.07,0.32000000000000006 h0 l0.06000000000000001,0.2 a14.26,14.26 0 0 0 3.73,6 h0 a35.87,35.87 0 0 0 8.46,6.29 h0 a45,45 0 0 0 9.83,4 a19.85,19.85 0 0 0 7.28,0.8200000000000001 h0.05000000000000001 l0.08000000000000002,0 h0 l0.11000000000000001,0 l2.89,-0.41000000000000003 l0.16000000000000003,0 l2.21,-0.27 l0.33000000000000007,-0.05000000000000001 c5,-0.5900000000000001 7.66,-0.9 9.27,-2.24 c1.8900000000000001,-1.55 3.6900000000000004,-4.93 7.12,-11.63 l0.13,-0.28 a14.75,14.75 0 0 0 1.21,-4.24 l0.08000000000000002,-0.44000000000000006 h0 v0 a32.21,32.21 0 0 1 3.22,-9.620000000000001 l0.13,-0.28 c0.8600000000000001,-1.6800000000000002 1.22,-4 1.6800000000000002,-6.92 v-0.09000000000000002 c0.6900000000000002,-4.4 1.6400000000000001,-10.47 4.83,-16.81 l0.07,-0.16000000000000003 c4.78,-9.51 8,-16.86 10.86,-23.3 c5.5,-12.47 9.58,-21.72 19.72,-35.77 a18.13,18.13 0 0 1 -2.7,-2.64 c-0.6200000000000001,-0.7300000000000001 -0.93,-1.1 -8.38,-4.91 l-0.28,-0.13 L99.64701080322266,7.363667144775391 a3,3 0 0 0 -2.27,-0.19000000000000003 a2.93,2.93 0 0 0 -1.7000000000000002,1.46 L65.08701080322265,68.5636671447754 a48.22,48.22 0 0 0 -3.34,8.41 a65.67,65.67 0 0 0 -1.6700000000000002,7.45 h0 a3.51,3.51 0 0 1 -3.47,2.91 C55.19701080322265,87.32366714477538 53.587010803222654,87.35366714477539 51.88701080322265,87.39366714477538 zm-4.73,-6.8100000000000005 c1.33,-0.09000000000000002 2.89,-0.16000000000000003 4.54,-0.2 l2,0 c0.35000000000000003,-1.6700000000000002 0.77,-3.46 1.32,-5.34 a55.63,55.63 0 0 1 3.81,-9.63 l30.62,-59.93 a10,10 0 0 1 5.82,-5 h0 a10,10 0 0 1 7.6,0.6000000000000001 l62,31.67 l0.26,0.15000000000000002 c8.77,4.49 9.37,5.2 10.59,6.640000000000001 a20.19,20.19 0 0 0 4.25,3.59 a3.52,3.52 0 0 1 0.8,4.91 l-0.18000000000000002,0.23 l-0.23,0.30000000000000004 c-10.93,14.76 -15,24 -20.62,36.73 c-2.91,6.59 -6.23,14.11 -11,23.61 l-0.13,0.24000000000000002 c-2.63,5.27 -3.5,10.72 -4.12,14.69 h0 v0.08000000000000002 c-0.55,3.5300000000000002 -1,6.35 -2.35,9 l-0.14,0.25 a26.23,26.23 0 0 0 -2.6,7.93 l0,0.16000000000000003 v0 h0 v0 h0 a20.27,20.27 0 0 1 -1.85,6.2 l-0.15000000000000002,0.26 c-3.89,7.59 -6,11.46 -8.9,13.870000000000001 c-3.26,2.68 -6.54,3.07 -12.91,3.8200000000000003 l-0.27,0 l-2.26,0.27 h0 l-2.75,0.39000000000000007 h-0.09000000000000002 l-0.21000000000000002,0 a26.51,26.51 0 0 1 -10.14,-1 a52.22,52.22 0 0 1 -11.4,-4.65 h0 a43,43 0 0 1 -10.13,-7.61 h0 a21.15,21.15 0 0 1 -5.4,-8.92 a8.73,8.73 0 0 1 -0.31000000000000005,-1.25 l0,-0.21000000000000002 l-0.09000000000000002,-0.8500000000000001 c-1.07,-8 0.5,-13.23 2.8600000000000003,-16.79 h0 a19.22,19.22 0 0 1 7.75,-6.48 a3.47,3.47 0 0 1 1.94,-0.38000000000000006 c7.14,-1.44 26,-2.5700000000000003 32.54,-3 l1.8,-0.11000000000000001 h0 c1.27,-0.09000000000000002 2.89,-0.16000000000000003 4.640000000000001,-0.21000000000000002 l1.9,0 c0.3400000000000001,-1.6700000000000002 0.77,-3.45 1.32,-5.33 v0 a54.74,54.74 0 0 1 3.8,-9.61 l25.12,-49.18 l-0.29000000000000004,-0.15000000000000002 c-3.95,-2 -11.06,-5.52 -19.15,-9.5 c-12.34,-6.07 -26.73,-13.13 -34.3,-17.84 L76.64701080322266,74.4236671447754 l-0.13,0.25 a37,37 0 0 0 -2.7800000000000002,7.640000000000001 h0 l0,0.09000000000000002 c-0.6000000000000001,2.42 -1,4.890000000000001 -1.3,7 v0 c-1.45,9.22 -4.37,20.58 -10.05,29.07 c-4.46,6.66 -10.58,11.59 -18.94,12.57 h-0.09000000000000002 l-2.36,0.29000000000000004 h0 l-3,0.42000000000000004 l-0.13,0 a26.42,26.42 0 0 1 -10.19,-1 a52,52 0 0 1 -11.39,-4.640000000000001 h0 a42.94,42.94 0 0 1 -10.13,-7.61 h0 a21.14,21.14 0 0 1 -5.4,-8.92 a8.7,8.7 0 0 1 -0.31000000000000005,-1.25 l0,-0.21000000000000002 l-0.09000000000000002,-0.8500000000000001 c-2.43,-18.09 7.86,-23.73 21.28,-25.56 A136.45,136.45 0 0 1 37.647010803222656,80.89366714477539 C40.92701080322266,80.8436671447754 44.12701080322266,80.7836671447754 47.147010803222656,80.58366714477539 z" id="svg_1"/><path class="cls-1" d="M47.37701080322266,84.0936671447754 c2.95,-0.19000000000000003 6.32,-0.28 9.23,-0.27 a57.21,57.21 0 0 1 5.35,-16.86 l30.62,-59.93 A6.46,6.46 0 0 1 101.26701080322266,4.223667144775391 l62,31.68 c13.91,7.1 6,3.8600000000000003 14.64,10.1 l-0.37000000000000005,0.5 c-16.79,22.67 -17.7,32.5 -31.94,60.85 c-3,5.9 -3.92,11.75 -4.58,16 c-0.51,3.26 -0.9,5.83 -2,8 a29.25,29.25 0 0 0 -3.07,9.17 a18.06,18.06 0 0 1 -1.58,5.46 c-7.5,14.68 -7.8,14.71 -19.24,16.06 c-1.54,0.18000000000000002 -3.37,0.4 -5.51,0.7200000000000001 h-0.08000000000000002 c-5,0.7600000000000001 -12.870000000000001,-1.57 -19.45,-5.21 s-12.51,-9 -13.89,-14.5 a6.6,6.6 0 0 1 -0.28,-1.59 c-1.94,-14.12 5.13,-18 8.74,-19.84 c1.3,-1.13 31.43,-2.85 34.89,-3.07 c2.95,-0.19000000000000003 6.32,-0.27 9.23,-0.27 a57.19,57.19 0 0 1 5.34,-16.86 l26.51,-51.89 a6.29,6.29 0 0 1 -0.30000000000000004,-0.6700000000000002 l-2.91,-1.49 c-9.73,-5 -56.88,-27.77 -56.82,-28.51 l-27.09,53.95 c-3,5.9 -3.92,11.75 -4.58,16 c-2.39,15.34 -9,36.73 -25.91,38.72 c-1.54,0.18000000000000002 -3.37,0.4 -5.51,0.7200000000000001 h-0.08000000000000002 c-5,0.7600000000000001 -12.870000000000001,-1.57 -19.46,-5.21 s-12.51,-9 -13.89,-14.5 a6.6,6.6 0 0 1 -0.28,-1.59 c-3.6,-26.18 24.54,-21.66 43.63,-22.9 " id="svg_2"/><polygon class="cls-1" points="155.85701751708984,65.3936653137207 88.92700958251953,32.73366928100586 92.43701171875,25.503665924072266 159.35701751708984,58.17366409301758 155.85701751708984,65.3936653137207 " id="svg_3"/></g></svg>