<svg xmlns="http://www.w3.org/2000/svg" data-name="Layer 1" width="115" height="176"><rect id="backgroundrect" width="100%" height="100%" x="0" y="0" fill="none" stroke="none"/><defs><style>.cls-1{fill:#eab932;}</style></defs><title>Wedding-assets</title><g class="currentLayer" style=""><title>Layer 1</title><path class="cls-1" d="M66.47588592529297,9.026702880859375 C34.295885925292964,52.46670288085937 15.265885925292963,108.02670288085938 0.3658859252929716,159.47670288085936 c-1.3,4.49 1.07,11 3.87,3.8600000000000003 C24.325885925292965,112.24670288085937 42.595885925292976,62.026702880859375 67.66588592529297,12.936702880859372 c0.55,-1.07 0.7200000000000001,-6.52 -1.19,-3.94 z" id="svg_1"/><path class="cls-1" d="M47.955885925292975,13.826702880859372 c11.59,54.39 36.4,111.83 61.85,161.11 c2.51,4.87 6.54,-7.25 5.28,-10.36 c-10.67,-26.34 -23,-52 -33.48,-78.43 c-10.26,-25.83 -17.7,-53.06 -30.27,-77.89 c-1.58,-3.12 -3.67,4.26 -3.39,5.57 z" id="svg_2"/><path class="cls-1" d="M63.96588592529298,161.83670288085938 C60.66588592529297,150.52670288085938 57.66588592529297,139.02670288085938 55.41588592529297,127.42670288085938 c-1.17,-6.15 -5.4,1.35 -6,3.58 c-2.88,10.49 -6.29,20.67 -10,30.87 c-0.7500000000000001,2.05 -2.35,8.48 0.21000000000000002,10 c2.77,1.61 4.53,-2.39 5.33,-4.43 a214.42,214.42 0 0 0 10.29,-35.1 l-6,3.58 c2.79,10.92 6.27,21 11.74,30.92 c1.48,2.68 3.41,-3.7 3,-5 z" id="svg_3"/><path class="cls-1" d="M56.44588592529297,29.806702880859376 a159.14,159.14 0 0 0 2.87,-21 c0.39000000000000007,-4.65 -2.9,-5.63 -4.42,-1 c-2.12,6.43 -4.43,17.82 -0.16000000000000003,23.82 c0.7000000000000001,1 1.6600000000000001,-1.6400000000000001 1.71,-1.87 z" id="svg_4"/><path class="cls-1" d="M56.66588592529297,27.026702880859375 c-0.05000000000000001,0.18000000000000002 1.21,-2.16 1.6,-2.79 c0.8500000000000001,-1.4 1.7400000000000002,-2.77 2.5700000000000003,-4.19 a61.31,61.31 0 0 0 5.41,-11 c0.7200000000000001,-2.12 1.59,-5.73 0.36000000000000004,-7.890000000000001 c-1,-1.84 -2.6500000000000004,-1.28 -3.79,0.25 C59.66588592529297,5.586702880859377 57.47588592529297,10.926702880859374 55.66588592529297,15.826702880859372 c-1.54,4.16 -2.4,8.34 -1.48,12.69 C54.66588592529297,31.026702880859375 56.38588592529297,28.026702880859375 56.66588592529297,27.026702880859375 z" id="svg_5"/><path class="cls-1" d="M57.965885925292966,26.706702880859375 a17.92,17.92 0 0 0 -7.12,-6.61 c-2.81,-1.61 -6,-3.77 -9.2,-4.17 c-4.09,-0.5 -6.18,10.31 -3.62,12.53 c4.13,3.59 12.53,6.9 17.93,5.26 c2,-0.6100000000000001 3,-5.38 2,-7 z" id="svg_6"/><path class="cls-1" d="M56.02588592529297,29.68670288085937 c6.1,0 11.1,0.22000000000000003 16.58,-3.15 c2,-1.21 3.8600000000000003,-10.79 0.39000000000000007,-9.81 C66.66588592529297,18.526702880859375 61.66588592529297,23.336702880859377 56.315885925292974,26.876702880859376 c-0.44000000000000006,0.29000000000000004 -1.18,2.8 -0.29000000000000004,2.8 z" id="svg_7"/></g></svg>