<svg height="176" width="115" xmlns="http://www.w3.org/2000/svg"><rect fill="none" height="100%" width="100%"/><g fill="#eab932"><path d="m66.47588593 9.02670288c-32.18 43.44-51.21 99-66.11 150.45-1.3 4.49 1.07 11 3.87 3.86 20.09-51.09 38.36-101.31 63.43-150.4.55-1.07.72-6.52-1.19-3.94z"/><path d="m47.95588593 13.82670288c11.59 54.39 36.4 111.83 61.85 161.11 2.51 4.87 6.54-7.25 5.28-10.36-10.67-26.34-23-52-33.48-78.43-10.26-25.83-17.7-53.06-30.27-77.89-1.58-3.12-3.67 4.26-3.39 5.57z"/><path d="m63.96588593 161.83670288c-3.3-11.31-6.3-22.81-8.55-34.41-1.17-6.15-5.4 1.35-6 3.58-2.88 10.49-6.29 20.67-10 30.87-.75 2.05-2.35 8.48.21 10 2.77 1.61 4.53-2.39 5.33-4.43a214.42 214.42 0 0 0 10.29-35.1l-6 3.58c2.79 10.92 6.27 21 11.74 30.92 1.48 2.68 3.41-3.7 3-5z"/><path d="m56.44588593 29.80670288a159.14 159.14 0 0 0 2.87-21c.39-4.65-2.9-5.63-4.42-1-2.12 6.43-4.43 17.82-.16 23.82.7 1 1.66-1.64 1.71-1.87z"/><path d="m56.66588593 27.02670288c-.05.18 1.21-2.16 1.6-2.79.85-1.4 1.74-2.77 2.57-4.19a61.31 61.31 0 0 0 5.41-11c.72-2.12 1.59-5.73.36-7.89-1-1.84-2.65-1.28-3.79.25-3.15 4.18-5.34 9.52-7.15 14.42-1.54 4.16-2.4 8.34-1.48 12.69.48 2.51 2.2-.49 2.48-1.49z"/><path d="m57.96588593 26.70670288a17.92 17.92 0 0 0 -7.12-6.61c-2.81-1.61-6-3.77-9.2-4.17-4.09-.5-6.18 10.31-3.62 12.53 4.13 3.59 12.53 6.9 17.93 5.26 2-.61 3-5.38 2-7z"/><path d="m56.02588593 29.68670288c6.1 0 11.1.22 16.58-3.15 2-1.21 3.86-10.79.39-9.81-6.33 1.8-11.33 6.61-16.68 10.15-.44.29-1.18 2.8-.29 2.8z"/></g></svg>