<svg enable-background="new 0 0 24 24" height="24" viewBox="0 0 24 24" width="24" xmlns="http://www.w3.org/2000/svg"><path d="m22.9 1h-4.9c0-.6-.4-1-1-1s-1 .4-1 1h-8c0-.6-.4-1-1-1s-1 .4-1 1h-4.9c-.6 0-1.1.5-1.1 1.1v20.8c0 .6.5 1.1 1.1 1.1h21.8c.6 0 1.1-.5 1.1-1.1v-20.8c0-.6-.5-1.1-1.1-1.1zm-.9 21h-20v-14h20zm0-15h-20v-4h4v1c0 .6.4 1 1 1s1-.4 1-1v-1h8v1c0 .6.4 1 1 1s1-.4 1-1v-1h4z"/><path d="m10.3 17.7c.4.4 1 .4 1.4 0l4.1-4.1c.4-.4.4-1 0-1.4s-1-.4-1.4 0l-3.4 3.5-1.4-1.4c-.4-.4-1-.4-1.4 0s-.4 1 0 1.4z"/></svg>