<svg height="48" width="48" xmlns="http://www.w3.org/2000/svg"><path d="m-1-1h582v402h-582z" fill="none"/><g fill="#fff"><path d="m44 40h-40c-2.206 0-4-1.794-4-4v-24c0-2.206 1.794-4 4-4h40c2.206 0 4 1.794 4 4v24c0 2.206-1.794 4-4 4zm-40-30c-1.103 0-2 .897-2 2v24c0 1.103.897 2 2 2h40c1.103 0 2-.897 2-2v-24c0-1.103-.897-2-2-2z"/><path d="m24 29.191-17.543-11.351c-.464-.301-.597-.919-.297-1.383s.919-.596 1.383-.297l16.457 10.649 16.457-10.649c.464-.299 1.083-.167 1.383.297s.167 1.082-.297 1.383z"/><path d="m6.001 34c-.323 0-.641-.156-.833-.445-.307-.46-.183-1.08.277-1.387l9-6c.46-.307 1.081-.183 1.387.277.307.46.183 1.08-.277 1.387l-9 6c-.171.113-.364.168-.554.168z"/><path d="m41.999 34c-.19 0-.383-.055-.554-.168l-9-6c-.46-.307-.584-.927-.277-1.387.306-.46.926-.584 1.387-.277l9 6c.46.307.584.927.277 1.387-.192.289-.51.445-.833.445z"/></g></svg>