<svg enable-background="new 0 0 512.053 512.053" viewBox="0 0 512.053 512.053" xmlns="http://www.w3.org/2000/svg"><path d="m365.027 44.5c-30-29.667-66.333-44.5-109-44.5s-79 14.833-109 44.5-45 65.5-45 107.5c0 25.333 12.833 67.667 38.5 127 25.667 59.334 51.333 113.334 77 162s38.5 72.334 38.5 71c4-7.334 9.5-17.334 16.5-30s19.333-36.5 37-71.5 33.167-67.166 46.5-96.5c13.334-29.332 25.667-59.667 37-91s17-55 17-71c0-42-15-77.833-45-107.5zm-76 139.5c-9.333 9.333-20.5 14-33.5 14s-24.167-4.667-33.5-14-14-20.5-14-33.5 4.667-24 14-33 20.5-13.5 33.5-13.5 24.167 4.5 33.5 13.5 14 20 14 33-4.667 24.167-14 33.5z" fill="#010002"/></svg>